HIERARCHY
ROOT Joint1
{
	OFFSET 0.000000 0.000000 0.000000
	CHANNELS 6 Xposition Yposition Zposition Xrotation Yrotation Zrotation
	JOINT Joint2
	{
		OFFSET -0.000000 0.000000 1.456275
		CHANNELS 6 Xposition Yposition Zposition Xrotation Yrotation Zrotation
		JOINT Joint3
		{
			OFFSET -0.000000 0.000002 1.471446
			CHANNELS 6 Xposition Yposition Zposition Xrotation Yrotation Zrotation
			JOINT Joint4
			{
				OFFSET 0.625745 0.000000 0.917755
				CHANNELS 6 Xposition Yposition Zposition Xrotation Yrotation Zrotation
				JOINT Joint5
				{
					OFFSET -0.629534 0.000001 0.940221
					CHANNELS 6 Xposition Yposition Zposition Xrotation Yrotation Zrotation
					JOINT Joint6
					{
						OFFSET -0.000001 0.113772 1.960660
						CHANNELS 6 Xposition Yposition Zposition Xrotation Yrotation Zrotation
						JOINT Joint7
						{
							OFFSET -0.669733 -0.113771 0.388340
							CHANNELS 6 Xposition Yposition Zposition Xrotation Yrotation Zrotation
							End Site
							{
								OFFSET 0.005509 0.005509 0.438980
							}
						}
					}
				}
			}
		}
	}
}
MOTION
Frames: 19
Frame Time: 0.041667
0.000000 0.000000 0.000000 -0.000000 1.019410 8.642202 -0.000000 -0.000000 1.456275 0.000000 -19.151033 -0.000000 -0.000000 0.000002 1.471446 -0.000000 -1.133461 5.841611 0.625745 0.000000 0.917755 0.000003 136.758364 -0.000000 -0.629534 0.000001 0.940221 -0.000001 1.709738 73.464634 -0.000001 0.113772 1.960660 -88.303889 69.036820 -0.000004 -0.669733 -0.113771 0.388340 -0.875140 3.552041 144.577674 
0.000000 0.000000 0.000000 -0.000000 1.019410 8.353684 -0.000000 -0.000000 1.456275 0.000000 -20.012210 0.000000 -0.000000 0.000002 1.471446 -0.000000 -1.133460 5.645896 0.625744 0.000000 0.917755 0.000004 136.700567 -0.000000 -0.629534 0.000001 0.940221 -0.000000 1.709737 71.014460 -0.000001 0.113773 1.960660 -88.303889 69.734893 -0.000012 -0.669733 -0.113771 0.388340 -0.869525 3.552969 144.257379 
0.000000 0.000000 0.000000 -0.000000 1.019410 8.069005 -0.000000 0.000000 1.456275 -0.000000 -20.861935 -0.000001 -0.000000 0.000002 1.471446 0.000000 -1.133459 5.452791 0.625744 0.000000 0.917755 0.000004 136.643549 -0.000002 -0.629534 0.000001 0.940221 -0.000000 1.709738 68.596881 -0.000001 0.113772 1.960660 -88.303896 70.423676 -0.000002 -0.669733 -0.113771 0.388340 -0.863983 3.553854 143.941333 
0.000000 0.000000 0.000000 -0.000000 1.019410 7.803233 -0.000000 0.000000 1.456275 -0.000000 -21.655221 0.000001 -0.000001 0.000002 1.471446 -0.000000 -1.133460 5.272510 0.625745 0.000000 0.917755 0.000001 136.590301 -0.000001 -0.629534 0.000001 0.940221 -0.000001 1.709739 66.339858 -0.000001 0.113772 1.960660 -88.303896 71.066725 -0.000007 -0.669733 -0.113771 0.388340 -0.858803 3.554654 143.646282 
0.000000 0.000000 0.000000 -0.000000 1.019410 7.566653 -0.000000 -0.000000 1.456275 -0.000000 -22.361368 -0.000000 -0.000000 0.000002 1.471445 0.000000 -1.133458 5.112030 0.625745 0.000000 0.917755 0.000003 136.542913 -0.000000 -0.629534 0.000001 0.940221 -0.000000 1.709736 64.330751 -0.000001 0.113772 1.960660 -88.303889 71.639136 -0.000002 -0.669733 -0.113771 0.388340 -0.854189 3.555343 143.383634 
0.000000 0.000000 0.000000 -0.000000 1.019410 7.350393 -0.000000 0.000000 1.456275 0.000000 -23.006864 -0.000001 -0.000000 0.000002 1.471446 -0.000000 -1.133458 4.965337 0.625745 0.000000 0.917755 0.000002 136.499596 -0.000001 -0.629534 0.000001 0.940221 -0.000001 1.709736 62.494223 -0.000001 0.113772 1.960660 -88.303896 72.162383 -0.000002 -0.669733 -0.113771 0.388340 -0.849973 3.555959 143.143567 
0.000000 0.000000 0.000000 -0.000000 1.019410 7.140802 -0.000000 -0.000000 1.456275 -0.000000 -23.632468 0.000000 -0.000000 0.000002 1.471446 -0.000000 -1.133459 4.823162 0.625745 0.000000 0.917755 0.000004 136.457617 0.000000 -0.629533 0.000001 0.940220 -0.000000 1.709736 60.714282 -0.000001 0.113772 1.960661 -88.303896 72.669483 -0.000005 -0.669734 -0.113771 0.388340 -0.845879 3.556532 142.910889 
0.000000 0.000000 0.000000 -0.000000 1.019410 6.924214 -0.000000 0.000000 1.456275 0.000000 -24.278940 -0.000000 -0.000000 0.000002 1.471445 -0.000000 -1.133460 4.676245 0.625745 0.000000 0.917755 0.000003 136.414218 -0.000001 -0.629534 0.000001 0.940221 -0.000000 1.709738 58.874960 -0.000002 0.113772 1.960661 -88.303903 73.193523 -0.000002 -0.669734 -0.113771 0.388340 -0.841643 3.557111 142.670439 
0.000000 0.000000 0.000000 -0.000000 1.019410 6.686976 -0.000000 -0.000000 1.456275 -0.000000 -24.987059 0.000000 -0.000000 0.000002 1.471446 -0.000000 -1.133461 4.515320 0.625744 0.000000 0.917755 0.000003 136.366708 -0.000001 -0.629534 0.000001 0.940221 -0.000001 1.709737 56.860280 -0.000001 0.113772 1.960660 -88.303903 73.767532 -0.000002 -0.669733 -0.113771 0.388340 -0.837010 3.557722 142.407067 
0.000000 0.000000 0.000000 -0.000000 1.019410 6.420311 -0.000000 0.000000 1.456275 0.000000 -25.783010 0.000000 -0.000000 0.000002 1.471446 -0.000000 -1.133460 4.334432 0.625744 0.000000 0.917754 0.000003 136.313282 0.000000 -0.629534 0.000001 0.940220 -0.000001 1.709739 54.595683 -0.000001 0.113772 1.960660 -88.303896 74.412732 -0.000009 -0.669733 -0.113771 0.388340 -0.831788 3.558387 142.111006 
0.000000 0.000000 0.000000 -0.000000 1.019410 6.134966 -0.000000 -0.000000 1.456275 -0.000000 -26.634721 0.000000 -0.000000 0.000002 1.471446 -0.000000 -1.133459 4.140872 0.625744 0.000000 0.917755 0.000004 136.256154 -0.000001 -0.629534 0.000001 0.940220 -0.000001 1.709739 52.172427 -0.000002 0.113772 1.960661 -88.303896 75.103135 -0.000007 -0.669733 -0.113771 0.388340 -0.826208 3.559067 141.794235 
0.000000 0.000000 0.000000 -0.000000 1.019410 5.846560 -0.000000 0.000000 1.456275 0.000000 -27.495563 0.000000 -0.000000 0.000002 1.471445 0.000001 -1.133458 3.945239 0.625745 0.000000 0.917755 0.000005 136.198357 -0.000000 -0.629534 0.000001 0.940221 -0.000002 1.709737 49.723203 -0.000001 0.113771 1.960661 -88.303896 75.800934 -0.000010 -0.669733 -0.113771 0.388340 -0.820559 3.559720 141.474063 
0.000000 0.000000 0.000000 -0.000000 1.019410 5.570721 -0.000000 0.000000 1.456275 -0.000000 -28.318897 0.000001 -0.000000 0.000002 1.471446 0.000000 -1.133456 3.758128 0.625745 0.000000 0.917755 0.000003 136.143114 0.000000 -0.629534 0.000001 0.940221 -0.000001 1.709738 47.380705 -0.000001 0.113772 1.960661 -88.303909 76.468332 -0.000010 -0.669733 -0.113771 0.388340 -0.815153 3.560321 141.167839 
0.000000 0.000000 0.000000 -0.000000 1.019410 5.319294 -0.000000 -0.000000 1.456275 0.000000 -29.069364 0.000000 -0.000000 0.000002 1.471446 0.000000 -1.133458 3.587579 0.625745 0.000000 0.917755 0.000005 136.092749 0.000001 -0.629534 0.000001 0.940221 -0.000001 1.709737 45.245512 -0.000001 0.113772 1.960660 -88.303909 77.076670 -0.000003 -0.669733 -0.113771 0.388340 -0.810224 3.560838 140.888716 
0.000000 0.000000 0.000000 -0.000000 1.019410 5.089007 -0.000000 0.000000 1.456275 -0.000000 -29.756730 -0.000000 -0.000000 0.000002 1.471446 0.000000 -1.133459 3.431368 0.625744 0.000000 0.917755 0.000004 136.046618 -0.000002 -0.629533 0.000001 0.940220 -0.000001 1.709736 43.289848 -0.000002 0.113772 1.960661 -88.303903 77.633856 -0.000009 -0.669733 -0.113771 0.388340 -0.805702 3.561289 140.633049 
0.000000 0.000000 0.000000 -0.000000 1.019410 4.872808 -0.000000 -0.000000 1.456275 -0.000000 -30.402046 -0.000000 -0.000000 0.000002 1.471446 -0.000000 -1.133459 3.284714 0.625744 0.000000 0.917756 0.000003 136.003314 -0.000002 -0.629533 0.000001 0.940221 -0.000001 1.709735 41.453822 -0.000001 0.113772 1.960660 -88.303903 78.156933 -0.000008 -0.669733 -0.113772 0.388341 -0.801462 3.561704 140.393036 
0.000000 0.000000 0.000000 -0.000000 1.019410 4.663644 -0.000000 0.000000 1.456275 -0.000000 -31.026360 0.000000 -0.000000 0.000002 1.471445 0.000000 -1.133460 3.142833 0.625744 0.000000 0.917755 0.000004 135.961418 -0.000002 -0.629534 0.000001 0.940220 -0.000001 1.709739 39.677542 -0.000001 0.113772 1.960660 -88.303903 78.663022 -0.000026 -0.669733 -0.113771 0.388341 -0.797352 3.562083 140.160823 
0.000000 0.000000 0.000000 -0.000000 1.019410 4.454464 -0.000000 0.000000 1.456275 0.000000 -31.650735 -0.000001 -0.000001 0.000002 1.471446 -0.000000 -1.133460 3.000939 0.625744 0.000000 0.917755 0.000004 135.919508 -0.000002 -0.629534 0.000001 0.940221 -0.000001 1.709738 37.901116 -0.000001 0.113772 1.960660 -88.303903 79.169132 -0.000002 -0.669733 -0.113771 0.388340 -0.793242 3.562441 139.928597 
0.000000 0.000000 0.000000 -0.000000 1.019410 4.239628 -0.000000 -0.000000 1.456275 -0.000000 -32.291984 0.000000 -0.000000 0.000002 1.471445 -0.000000 -1.133461 2.855209 0.625745 0.000000 0.917755 0.000002 135.876464 -0.000001 -0.629534 0.000001 0.940221 -0.000001 1.709737 36.076680 -0.000001 0.113772 1.960660 -88.303909 79.688930 -0.000007 -0.669733 -0.113771 0.388340 -0.789022 3.562794 139.690073 
